<svg width="954" height="785" viewBox="0 0 954 785" fill="none" xmlns="http://www.w3.org/2000/svg">
<rect x="4" y="728.513" width="945" height="54.4866" fill="#00CDCC" fill-opacity="0.7"/>
<path d="M168.481 664.077L4 728.513L949 728.513L947.945 42.4767L785.523 104.505L632.228 293.656L478.588 388.232L322.838 553.739L168.481 664.077Z" fill="#00CDCC" fill-opacity="0.7"/>
<path d="M2.94531 727.275L168.357 663.409C169.14 663.107 169.881 662.708 170.564 662.221L323.096 553.384C323.626 553.006 324.118 552.577 324.564 552.103L478.732 388.573C479.336 387.932 480.023 387.374 480.773 386.913L631.829 294.096C632.791 293.505 633.646 292.755 634.358 291.879L784.886 106.478C785.994 105.112 787.444 104.063 789.087 103.437L949 42.4766" stroke="#00CDCC" stroke-opacity="0.7" stroke-width="2" stroke-linecap="round" stroke-linejoin="round"/>
<path d="M14 726.037C14 728.798 11.7614 731.037 9 731.037C6.23858 731.037 4 728.798 4 726.037C4 723.275 6.23858 721.037 9 721.037C11.7614 721.037 14 723.275 14 726.037Z" fill="white" stroke="#00CDCC" stroke-opacity="0.7" stroke-width="2"/>
<path d="M170.167 664.12C170.167 666.881 167.928 669.12 165.167 669.12C162.405 669.12 160.167 666.881 160.167 664.12C160.167 661.358 162.405 659.12 165.167 659.12C167.928 659.12 170.167 661.358 170.167 664.12Z" fill="white" stroke="#00CDCC" stroke-opacity="0.7" stroke-width="2"/>
<circle cx="321.333" cy="555.147" r="5" fill="white" stroke="#00CDCC" stroke-opacity="0.7" stroke-width="2"/>
<circle cx="477.5" cy="389.21" r="5" fill="white" stroke="#00CDCC" stroke-opacity="0.7" stroke-width="2"/>
<circle cx="633.667" cy="295.097" r="5" fill="white" stroke="#00CDCC" stroke-opacity="0.7" stroke-width="2"/>
<circle cx="789.833" cy="106.87" r="5" fill="white" stroke="#00CDCC" stroke-opacity="0.7" stroke-width="2"/>
<circle cx="946" cy="42.4767" r="5" fill="white" stroke="#00CDCC" stroke-opacity="0.7" stroke-width="2"/>
<rect width="948" height="34.4667" transform="matrix(-1 0 0 1 951 750.533)" fill="#00CDCC" fill-opacity="0.7"/>
<path d="M785.997 709.772L951 750.533L3 750.533L4.05804 316.567L166.996 355.804L320.778 475.455L474.906 535.281L631.149 639.976L785.997 709.772Z" fill="#00CDCC" fill-opacity="0.7"/>
<path d="M952.058 749.75L785.835 709.281C785.239 709.136 784.657 708.936 784.098 708.684L630.853 639.735C630.346 639.507 629.859 639.237 629.397 638.928L474.765 535.5C474.155 535.092 473.502 534.753 472.818 534.487L321.085 475.697C320.18 475.347 319.33 474.866 318.564 474.271L167.639 357.055C166.518 356.184 165.223 355.562 163.842 355.23L2.99993 316.567" stroke="#00CDCC" stroke-opacity="0.7" stroke-width="2" stroke-linecap="round" stroke-linejoin="round"/>
<path d="M941 748.967C941 751.728 943.239 753.967 946 753.967C948.761 753.967 951 751.728 951 748.967C951 746.205 948.761 743.967 946 743.967C943.239 743.967 941 746.205 941 748.967Z" fill="white" stroke="#00CDCC" stroke-opacity="0.7" stroke-width="2"/>
<path d="M784.333 709.8C784.333 712.561 786.572 714.8 789.333 714.8C792.095 714.8 794.333 712.561 794.333 709.8C794.333 707.039 792.095 704.8 789.333 704.8C786.572 704.8 784.333 707.039 784.333 709.8Z" fill="white" stroke="#00CDCC" stroke-opacity="0.7" stroke-width="2"/>
<circle cx="5" cy="5" r="5" transform="matrix(-1 0 0 1 637.667 635.866)" fill="white" stroke="#00CDCC" stroke-opacity="0.7" stroke-width="2"/>
<circle cx="5" cy="5" r="5" transform="matrix(-1 0 0 1 481 530.9)" fill="white" stroke="#00CDCC" stroke-opacity="0.7" stroke-width="2"/>
<circle cx="5" cy="5" r="5" transform="matrix(-1 0 0 1 324.333 471.367)" fill="white" stroke="#00CDCC" stroke-opacity="0.7" stroke-width="2"/>
<circle cx="5" cy="5" r="5" transform="matrix(-1 0 0 1 167.667 352.3)" fill="white" stroke="#00CDCC" stroke-opacity="0.7" stroke-width="2"/>
<circle cx="5" cy="5" r="5" transform="matrix(-1 0 0 1 10.9999 311.567)" fill="white" stroke="#00CDCC" stroke-opacity="0.7" stroke-width="2"/>
</svg>
